PathFileType	4	(X/Y/Z)	C:/Users/opensim2020/Desktop/walking_exp_matlab/subject01_walking04_static.trc	
DataRate	CameraRate	NumFrames	NumMarkers	Units	OrigDataRate	OrigDataStartFrame	OrigNumFrames	
100.00	100.00	4	43	mm	100.00	81	321	
Frame#	Time	LFHD			RFHD			LBHD			RBHD			C7			T10			CLAV			STRN			RBAK			LSHO			LUPA			LELB			LFRM			LWRA			LWRB			LFIN			RSHO			RUPA			RELB			RFRM			RWRA			RWRB			RFIN			LASI			RASI			LPSI			RPSI			LTHI			LKNE			LTIB			LANK			LHEE			LTOE			RTHI			RKNE			RTIB			RANK			RHEE			RTOE			*39			*40			*41			*42			
		X1	Y1	Z1	X2	Y2	Z2	X3	Y3	Z3	X4	Y4	Z4	X5	Y5	Z5	X6	Y6	Z6	X7	Y7	Z7	X8	Y8	Z8	X9	Y9	Z9	X10	Y10	Z10	X11	Y11	Z11	X12	Y12	Z12	X13	Y13	Z13	X14	Y14	Z14	X15	Y15	Z15	X16	Y16	Z16	X17	Y17	Z17	X18	Y18	Z18	X19	Y19	Z19	X20	Y20	Z20	X21	Y21	Z21	X22	Y22	Z22	X23	Y23	Z23	X24	Y24	Z24	X25	Y25	Z25	X26	Y26	Z26	X27	Y27	Z27	X28	Y28	Z28	X29	Y29	Z29	X30	Y30	Z30	X31	Y31	Z31	X32	Y32	Z32	X33	Y33	Z33	X34	Y34	Z34	X35	Y35	Z35	X36	Y36	Z36	X37	Y37	Z37	X38	Y38	Z38	X39	Y39	Z39	X40	Y40	Z40	X41	Y41	Z41	X42	Y42	Z42	X43	Y43	Z43	

81	0.800	6.69820	-405.26141	1684.23071	4.47312	-291.20352	1694.09521	104.34314	-406.32944	1605.75073	105.91841	-285.83450	1614.33838	108.14751	-356.45108	1437.25830	133.67703	-345.82962	1143.58215	-39.06245	-345.65900	1375.71094	-87.08639	-345.34579	1220.87000	159.35344	-276.73877	1242.18567	13.46556	-510.19937	1398.61865	34.60190	-605.42303	1221.93860	44.99307	-628.82190	1073.87561	-5.87429	-638.83545	965.55951	-76.64503	-592.58234	853.66638	-35.90913	-637.32300	847.40265	-88.07623	-626.56036	780.46094	30.83459	-199.03914	1401.83154	82.26616	-82.37735	1212.41284	67.35880	-55.89671	1088.80518	19.95071	-36.92728	971.69202	-47.63498	-89.39507	856.88275	-28.51925	-34.63510	858.39703	-62.67369	-52.88092	781.37122	-51.97683	-445.35443	937.39905	-41.14680	-228.12590	941.16473	139.40359	-404.01324	951.86725	145.34518	-261.28885	957.30475	1.20265	-517.45874	606.45685	23.63295	-507.79282	472.28564	75.57300	-530.54834	293.05917	84.79402	-488.36884	71.62281	124.13053	-435.84766	39.29916	-64.31020	-509.06049	33.32878	33.03139	-157.66501	613.26196	25.75343	-173.34541	456.09665	72.83773	-151.03853	288.03900	79.87662	-179.11134	78.48374	124.80152	-227.63878	35.51210	-61.72304	-164.37860	37.01913	25.84663	-315.60080	1722.16736	-3102.01050	1973.17151	1023.57245	-3140.61792	2012.51416	1021.92126			 
82	0.810	6.67406	-405.26767	1684.20251	4.45325	-291.21066	1694.09509	104.32245	-406.33441	1605.78528	105.88379	-285.88699	1614.30225	108.17153	-356.49197	1437.24121	133.69598	-345.85303	1143.55457	-39.02820	-345.65829	1375.69128	-87.07368	-345.33313	1220.87854	159.35939	-276.75882	1242.16602	13.49032	-510.18491	1398.61316	34.62135	-605.39508	1221.89380	45.01292	-628.70813	1073.77026	-5.85831	-638.71375	965.48956	-76.61710	-592.34058	853.61725	-35.87213	-637.17584	847.32141	-88.00565	-626.36859	780.39771	30.87825	-199.03186	1401.81592	82.26944	-82.36082	1212.35486	67.35415	-55.93074	1088.74182	19.95815	-36.98404	971.62354	-47.58604	-89.52900	856.82281	-28.49017	-34.76015	858.31506	-62.64267	-53.04942	781.32721	-51.98755	-445.36435	937.42383	-41.14684	-228.16614	941.16278	139.39819	-404.02948	951.87067	145.39847	-261.30585	957.32721	1.25261	-517.45984	606.42303	23.67009	-507.80252	472.27301	75.58447	-530.56085	293.08066	84.80232	-488.35196	71.59528	124.15762	-435.84073	39.31322	-64.31371	-509.08176	33.33583	33.01593	-157.68063	613.27319	25.49886	-173.44034	455.84341	72.83310	-151.08359	288.03540	79.87735	-179.12726	78.44601	124.81533	-227.63713	35.51826	-61.74405	-164.37724	37.01080	25.86648	-315.61121	1722.15820	-3102.00146	1973.16296	1023.44867	-3140.65527	2012.51648	1022.02081			 
83	0.820	6.66504	-405.27048	1684.20251	4.39783	-291.20563	1694.12061	104.30596	-406.34116	1605.78638	105.91430	-285.86679	1614.32739	108.16724	-356.45157	1437.25854	133.73538	-345.87784	1143.56335	-39.00031	-345.67462	1375.70947	-87.05487	-345.34738	1220.88452	159.37926	-276.75940	1242.16663	13.50307	-510.17776	1398.59631	34.64599	-605.33838	1221.88489	45.01840	-628.60291	1073.75610	-5.81731	-638.58325	965.43805	-76.48959	-592.34802	853.53394	-35.81886	-637.04083	847.32269	-87.97359	-626.19543	780.36505	30.98746	-199.01460	1401.88025	82.28521	-82.34154	1212.33875	67.38097	-55.94209	1088.70935	19.95841	-37.03714	971.59619	-47.55748	-89.63136	856.80872	-28.46032	-34.85937	858.26227	-62.65444	-53.12597	781.32043	-51.96212	-445.37921	937.43500	-41.10331	-228.18459	941.14636	139.40924	-404.04504	951.87817	145.36755	-261.32489	957.30188	1.26794	-517.46008	606.44745	23.69324	-507.81937	472.28683	75.59605	-530.56311	293.08362	84.79860	-488.33981	71.61166	124.15573	-435.84665	39.32253	-64.29506	-509.06134	33.32909	33.01836	-157.69911	613.26111	25.71797	-173.36108	456.07010	72.84606	-151.08740	288.03226	79.84562	-179.09859	78.45653	124.80968	-227.56534	35.56164	-61.73019	-164.36583	37.00401	25.85998	-315.60889	1722.19214	-3102.01978	1973.10181	1023.29718	-3140.69434	2012.49683	1021.93396			 
84	0.830	6.66427	-405.24820	1684.20581	4.43123	-291.20035	1694.11597	104.32008	-406.30710	1605.78442	105.87438	-285.87054	1614.33374	108.18951	-356.46902	1437.25830	133.74585	-345.87442	1143.58362	-38.96131	-345.65811	1375.69580	-87.01765	-345.35107	1220.85657	159.40994	-276.75894	1242.14978	13.51466	-510.18005	1398.59106	34.66088	-605.27576	1221.85498	45.04708	-628.52313	1073.72595	-5.79888	-638.47595	965.38983	-76.44417	-592.20605	853.47992	-35.77341	-636.81653	847.23560	-87.91576	-626.03583	780.30017	30.93319	-198.99898	1401.80859	82.30716	-82.33404	1212.33472	67.43391	-55.96727	1088.68433	20.01908	-37.11800	971.55762	-47.55122	-89.73836	856.82312	-28.42622	-34.97031	858.23914	-62.63706	-53.27758	781.30908	-51.97182	-445.39288	937.41571	-41.13672	-228.17990	941.15137	139.40736	-404.04218	951.88599	145.37366	-261.33377	957.32867	1.27668	-517.47058	606.43268	23.69054	-507.84564	472.29016	75.58659	-530.57336	293.04819	84.83008	-488.32910	71.60905	124.16784	-435.86044	39.35723	-64.28931	-509.04886	33.31820	32.96971	-157.68866	613.24646	25.69600	-173.36694	456.04669	72.82396	-151.05037	288.02695	79.84479	-179.12440	78.47554	124.78928	-227.63622	35.56739	-61.75165	-164.35420	36.99046	25.85073	-315.59689	1722.17908	-3101.95581	1973.09753	1023.20947	-3140.65381	2012.53577	1021.95959			 
